<svg width="100" height="100" viewBox="0 0 100 100" fill="none" xmlns="http://www.w3.org/2000/svg">
    <rect width="100" height="100" fill="#111"/>

    <!-- P glyph from Cinzel Decorative 900 -->
    <path transform="translate(4, 67) scale(0.05, -0.05)" fill="#E2E8F0"
          d="M112 600Q111 658 54 658Q49 658 36 657L34 666Q118 672 237.0 692.0Q356 712 386.5 715.0Q417 718 443 718Q523 718 569.5 703.5Q616 689 651.0 666.0Q686 643 707 603Q730 559 730.0 509.5Q730 460 717.0 422.0Q704 384 680 357Q608 275 496 275Q457 275 425 287Q366 309 349 365L359 371Q373 351 405 351Q454 351 492 409Q515 446 515 507Q515 592 472 633Q440 664 391 664Q379 664 366 662L317 655V73Q318 47 336.5 28.5Q355 10 381 10H394V0H35V10H48Q74 10 92.5 28.5Q111 47 112 73Z"/>

    <!-- M glyph from Cinzel Decorative 900 -->
    <path transform="translate(37, 63) scale(0.05, -0.05)" fill="#E2E8F0"
          d="M-114 746Q-43 784 25.5 784.0Q94 784 151 755Q265 696 346 562L525 271L822 714H831L944 129Q978 -51 1045 -121Q1098 -176 1180 -176Q1187 -176 1195 -176V-186Q1133 -212 1066 -212Q933 -212 835 -108Q753 -22 720 135L674 346L503 92Q486 68 473.0 34.0Q460 0 461 -24H452L209 392L159 56V52Q159 36 170.5 22.5Q182 9 198 9H213V0H-6V10H10Q37 10 57.5 26.5Q78 43 83 71L152 500Q101 589 39 658Q-32 736 -103 736Q-107 736 -111 736Z"/>

</svg>
