<svg width="100" height="100" viewBox="0 0 100 100" fill="none" xmlns="http://www.w3.org/2000/svg">
    <rect width="100" height="100" fill="#111"/>

    <!-- O glyph from Cinzel Decorative 900 -->
    <path transform="translate(7, 60) scale(0.05, -0.05)" fill="#E2E8F0"
          d="M367 433Q336 485 336 543Q336 623 396 673Q432 704 485 714Q517 719 536.5 719.0Q556 719 578.0 718.5Q600 718 642.5 705.0Q685 692 725.0 673.5Q765 655 800.5 623.0Q836 591 863 553Q921 471 921 355Q921 187 796.5 86.5Q672 -14 467.0 -14.0Q262 -14 136.0 87.0Q10 188 10 353Q10 489 94.5 586.5Q179 684 315 707L321 697Q280 654 255.5 569.5Q231 485 231 387Q231 228 295.0 132.0Q359 36 465.5 36.0Q572 36 636.0 123.0Q700 210 700 355Q700 447 674.5 520.0Q649 593 604.0 629.0Q559 665 509 665Q444 665 409 626Q368 581 368 514Q368 476 379 433Z"/>

    <!-- B glyph from Cinzel Decorative 900 -->
    <path transform="translate(53, 70) scale(0.05, -0.05)" fill="#E2E8F0"
          d="M402 -16Q-9 -16 -9 321Q-9 350 -6 380L4 381Q4 195 127 103V628Q126 655 107.0 672.5Q88 690 63 690H50V700H358Q528 700 608 623Q651 581 651 522Q651 457 608 413Q589 392 565 383Q570 383 575 383Q643 383 700.0 336.0Q757 289 757.0 209.0Q757 129 700 76Q603 -16 402 -16ZM436 486V516Q433 581 410.0 613.0Q387 645 332 649V38Q422 39 472.0 86.5Q522 134 522 211Q522 296 475.0 334.0Q428 372 366 372V381Q387 381 401.5 392.5Q416 404 423 421Q436 458 436 486Z"/>

</svg>
